<svg width="169" height="71" viewBox="0 0 169 71" fill="none" xmlns="http://www.w3.org/2000/svg">
<g style="mix-blend-mode:overlay">
<path d="M8 13.064C8 10.3026 10.2362 8.06399 12.9976 8.06399C14.9944 8.06399 17.5311 8.064 20.5 8.064L20 15.064C20 15.064 22.5 8.06398 23.5 8.064C46.6125 8.06401 90.0068 8.06402 114.5 8.06399C116.969 7.93406 117.941 7.98578 118.985 8.37025C120 8.74398 120.82 9.57919 121.017 10.643C121.231 11.8033 121.105 12.564 122 12.564C133.994 12.5635 131.486 10.3711 134.589 8.52096C135.165 8.17751 135.845 8.06399 136.515 8.064C142.966 8.06403 151.621 8.06402 157.002 8.06401C159.764 8.064 162 10.3026 162 13.064V40.2822C162 41.9714 160.998 43.4996 159.449 44.1731C156.048 45.652 156.048 50.476 159.449 51.9548C160.998 52.6283 162 54.1565 162 55.8457V59.064C162 61.8254 159.789 64.064 157.028 64.064C142.485 64.064 100.23 64.064 87.1641 64.064C85.4923 64.064 84.0011 63.1923 83.1439 61.757C82.2954 60.3365 81.4793 59.716 78 60.064C77.2964 60.1343 74.5 64.064 74 64.064C73.1694 64.064 28.1867 64.064 12.9693 64.064C10.2079 64.064 8 61.8254 8 59.064V13.064Z" fill="black"/>
</g>
<path d="M2 24.5V2H25" stroke="black" stroke-opacity="0.7" stroke-width="3" stroke-linecap="round" stroke-linejoin="round"/>
<path d="M167 47L167 69.5L144 69.5" stroke="black" stroke-opacity="0.7" stroke-width="3" stroke-linecap="round" stroke-linejoin="round"/>
</svg>
